<svg xmlns="http://www.w3.org/2000/svg" xmlns:xlink="http://www.w3.org/1999/xlink" width="256" zoomAndPan="magnify" viewBox="0 0 192 191.999996" height="256" preserveAspectRatio="xMidYMid meet" version="1.0"><defs><clipPath id="420df788a3"><path d="M 0 0 L 192 0 L 192 191.832031 L 0 191.832031 Z M 0 0 " clip-rule="nonzero"/></clipPath><clipPath id="0353da0108"><path d="M 43.226562 -18.917969 L 148.601562 -18.917969 C 177.703125 -18.917969 201.289062 4.667969 201.289062 33.769531 L 201.289062 139.144531 C 201.289062 168.242188 177.703125 191.832031 148.601562 191.832031 L 43.226562 191.832031 C 14.128906 191.832031 -9.460938 168.242188 -9.460938 139.144531 L -9.460938 33.769531 C -9.460938 4.667969 14.128906 -18.917969 43.226562 -18.917969 Z M 43.226562 -18.917969 " clip-rule="nonzero"/></clipPath><clipPath id="40a4b87a2e"><path d="M 52.285156 16.480469 L 157.660156 16.480469 L 157.660156 191.832031 L 52.285156 191.832031 Z M 52.285156 16.480469 " clip-rule="nonzero"/></clipPath><clipPath id="ef973ba1b8"><path d="M 43.226562 -18.917969 L 148.601562 -18.917969 C 177.703125 -18.917969 201.289062 4.667969 201.289062 33.769531 L 201.289062 139.144531 C 201.289062 168.242188 177.703125 191.832031 148.601562 191.832031 L 43.226562 191.832031 C 14.128906 191.832031 -9.460938 168.242188 -9.460938 139.144531 L -9.460938 33.769531 C -9.460938 4.667969 14.128906 -18.917969 43.226562 -18.917969 Z M 43.226562 -18.917969 " clip-rule="nonzero"/></clipPath></defs><rect x="-19.2" width="230.4" fill="#ffffff" y="-19.2" height="230.399995" fill-opacity="1"/><rect x="-19.2" width="230.4" fill="#f46a25" y="-19.2" height="230.399995" fill-opacity="1"/><g clip-path="url(#420df788a3)"><g clip-path="url(#0353da0108)"><path fill="#f46a25" d="M 43.226562 -18.917969 L 148.601562 -18.917969 C 177.703125 -18.917969 201.289062 4.667969 201.289062 33.769531 L 201.289062 139.144531 C 201.289062 168.242188 177.703125 191.832031 148.601562 191.832031 L 43.226562 191.832031 C 14.128906 191.832031 -9.460938 168.242188 -9.460938 139.144531 L -9.460938 33.769531 C -9.460938 4.667969 14.128906 -18.917969 43.226562 -18.917969 Z M 43.226562 -18.917969 " fill-opacity="1" fill-rule="nonzero"/></g></g><g clip-path="url(#40a4b87a2e)"><g clip-path="url(#ef973ba1b8)"><path fill="#fef8f5" d="M 85.398438 45.851562 L 90.664062 16.503906 L 90.664062 16.5 C 114.195312 44.25 102.082031 69.519531 99.265625 75.386719 C 99.113281 75.707031 98.988281 75.972656 98.894531 76.171875 Z M 97.757812 134.503906 L 127.328125 132.207031 C 141.625 130.957031 155.390625 116.226562 157.410156 104.757812 L 140.414062 101.757812 C 134.554688 100.574219 126.773438 96.742188 122.566406 92.5 C 120.410156 90.320312 118.269531 88.464844 115.628906 86.972656 C 112.992188 85.476562 109.851562 84.347656 105.691406 83.613281 L 95.207031 81.761719 L 66.171875 16.550781 C 44.582031 40.898438 55.320312 71.949219 71.429688 83.789062 L 52.453125 191.832031 L 138.039062 191.832031 L 121.9375 155.671875 C 117.371094 145.414062 108.53125 137.675781 97.757812 134.503906 Z M 108.75 96.125 C 110.734375 96.324219 112.335938 97.925781 112.535156 99.910156 C 112.800781 102.589844 110.570312 104.828125 107.886719 104.558594 C 105.902344 104.367188 104.296875 102.757812 104.101562 100.773438 C 103.835938 98.089844 106.070312 95.863281 108.75 96.125 Z M 108.75 96.125 " fill-opacity="1" fill-rule="evenodd"/></g></g></svg>